<?xml version='1.0' encoding='utf-8'?>
<!DOCTYPE svg PUBLIC '-//W3C//DTD SVG 1.1//EN' 'http://www.w3.org/Graphics/SVG/1.1/DTD/svg11.dtd'>
<svg version="1.1" xmlns="http://www.w3.org/2000/svg" viewBox="0 0 512 512" xmlns:xlink="http://www.w3.org/1999/xlink" enable-background="new 0 0 512 512">
  <g>
    <g>
      <path d="m480.6,211h-82.9v-74c0-11.3-9.1-20.4-20.4-20.4h-169.8v-85.2c0-11.3-9.1-20.4-20.4-20.4s-20.4,9.1-20.4,20.4v85.1h-31.9c-11.3,0-20.4,9.1-20.4,20.4v74h-83c-11.3,0-20.4,9.1-20.4,20.4v249.2c0,11.3 9.1,20.4 20.4,20.4h449.2c11.3,0 20.4-9.1 20.4-20.4v-249.1c5.68434e-14-11.3-9.1-20.4-20.4-20.4zm-325.4-53.6h201.6v53.6h-201.6v-53.6zm62.6,302.8v-65.7h76.6v65.7h-76.6zm242.4,0h-125.1v-86.2c0-11.3-9.1-20.4-20.4-20.4h-117.4c-11.3,0-20.4,9.1-20.4,20.4v86.2h-125v-208.4h408.3v208.4z"/>
    </g>
  </g>
</svg>
